HIERARCHY
ROOT Hips
{
	OFFSET 0.000000 0.000000 0.000000
	CHANNELS 6 Xposition Yposition Zposition Xrotation Yrotation Zrotation
	JOINT LeftUpLeg_virtual
	{
		OFFSET 0.000000 0.000000 0.000000
		CHANNELS 3 Xrotation Yrotation Zrotation
		JOINT LeftUpLeg
		{
			OFFSET 11.394100 -6.187798 -0.413800
			CHANNELS 3 Xrotation Yrotation Zrotation
			JOINT LeftLeg
			{
				OFFSET 0.430247 -32.302673 3.732800
				CHANNELS 3 Xrotation Yrotation Zrotation
				JOINT LeftFoot
				{
					OFFSET -0.430247 -48.264931 -6.423300
					CHANNELS 3 Xrotation Yrotation Zrotation
					JOINT LeftToeBase
					{
						OFFSET 4.230900 -16.068199 23.438400
						CHANNELS 3 Xrotation Yrotation Zrotation
						JOINT LeftToe_End
						{
							OFFSET 4.510700 0.695400 19.974600
							CHANNELS 3 Xrotation Yrotation Zrotation
							End Site
							{
								OFFSET 0 0 0
							}
						}
					}
				}
			}
		}
	}
	JOINT RightUpLeg_virtual
	{
		OFFSET 0.000000 0.000000 0.000000
		CHANNELS 3 Xrotation Yrotation Zrotation
		JOINT RightUpLeg
		{
			OFFSET -11.333700 -6.187798 -0.413800
			CHANNELS 3 Xrotation Yrotation Zrotation
			JOINT RightLeg
			{
				OFFSET -0.430392 -32.302628 3.733000
				CHANNELS 3 Xrotation Yrotation Zrotation
				JOINT RightFoot
				{
					OFFSET 0.430392 -48.264973 -6.423500
					CHANNELS 3 Xrotation Yrotation Zrotation
					JOINT RightToeBase
					{
						OFFSET -4.230900 -16.068199 23.438400
						CHANNELS 3 Xrotation Yrotation Zrotation
						JOINT RightToe_End
						{
							OFFSET -4.510700 0.695400 19.974600
							CHANNELS 3 Xrotation Yrotation Zrotation
							End Site
							{
								OFFSET 0 0 0
							}
						}
					}
				}
			}
		}
	}
	JOINT Spine_virtual
	{
		OFFSET 0.000000 0.000000 0.000000
		CHANNELS 3 Xrotation Yrotation Zrotation
		JOINT Spine
		{
			OFFSET -0.002400 12.777504 0.315300
			CHANNELS 3 Xrotation Yrotation Zrotation
			JOINT Spine1
			{
				OFFSET -0.002067 5.816869 0.032633
				CHANNELS 3 Xrotation Yrotation Zrotation
				JOINT Spine1_split
				{
					OFFSET -0.002067 5.816869 0.032633
					CHANNELS 3 Xrotation Yrotation Zrotation
					JOINT Spine2
					{
						OFFSET -0.002067 5.816869 0.032633
						CHANNELS 3 Xrotation Yrotation Zrotation
						JOINT Neck_virtual
						{
							OFFSET 0.000000 0.000000 0.000000
							CHANNELS 3 Xrotation Yrotation Zrotation
							JOINT Neck
							{
								OFFSET -0.003700 21.199493 -0.826900
								CHANNELS 3 Xrotation Yrotation Zrotation
								JOINT Head
								{
									OFFSET 0.000000 20.442200 4.834800
									CHANNELS 3 Xrotation Yrotation Zrotation
									JOINT HeadTop_End
									{
										OFFSET 0.000000 34.668396 4.968400
										CHANNELS 3 Xrotation Yrotation Zrotation
										End Site
										{
											OFFSET 0 0 0
										}
									}
								}
							}
						}
						JOINT LeftShoulder_virtual
						{
							OFFSET 0.000000 0.000000 0.000000
							CHANNELS 3 Xrotation Yrotation Zrotation
							JOINT LeftShoulder
							{
								OFFSET 3.288150 8.794197 -1.372250
								CHANNELS 3 Xrotation Yrotation Zrotation
								JOINT LeftShoulder_split
								{
									OFFSET 3.288150 8.794197 -1.372250
									CHANNELS 3 Xrotation Yrotation Zrotation
									JOINT LeftArm
									{
										OFFSET 11.953299 -2.279007 -0.146200
										CHANNELS 3 Xrotation Yrotation Zrotation
										JOINT LeftForeArm
										{
											OFFSET 18.448900 0.000000 0.000000
											CHANNELS 3 Xrotation Yrotation Zrotation
											JOINT LeftHand
											{
												OFFSET 29.527798 0.000000 0.000000
												CHANNELS 3 Xrotation Yrotation Zrotation
												End Site
												{
													OFFSET 0 0 0
												}
											}
										}
									}
								}
							}
						}
						JOINT RightShoulder_virtual
						{
							OFFSET 0.000000 0.000000 0.000000
							CHANNELS 3 Xrotation Yrotation Zrotation
							JOINT RightShoulder
							{
								OFFSET -3.249400 8.794197 -1.372250
								CHANNELS 3 Xrotation Yrotation Zrotation
								JOINT RightShoulder_split
								{
									OFFSET -3.249400 8.794197 -1.372250
									CHANNELS 3 Xrotation Yrotation Zrotation
									JOINT RightArm
									{
										OFFSET -11.953299 -2.279007 -0.146200
										CHANNELS 3 Xrotation Yrotation Zrotation
										JOINT RightForeArm
										{
											OFFSET -18.448900 0.000000 0.000000
											CHANNELS 3 Xrotation Yrotation Zrotation
											JOINT RightHand
											{
												OFFSET -29.527802 0.000000 0.000000
												CHANNELS 3 Xrotation Yrotation Zrotation
												End Site
												{
													OFFSET 0 0 0
												}
											}
										}
									}
								}
							}
						}
					}
				}
			}
		}
	}
}
MOTION
Frames: 10
Frame Time: 0.03333333
-0.964811 91.440948 0.229637 0.000000 0.000000 0.000000 -3.171462 -16.817876 -1.700104 -37.784108 17.203083 14.946180 50.170437 -0.168140 10.545371 -13.654264 2.958887 -7.830510 -1.166192 -0.434100 -1.267503 0.000000 0.000000 0.000000 -3.736074 -15.835131 -1.414795 -32.884912 -21.281599 -14.095665 49.693926 -3.414284 -10.281017 -13.151173 -4.002744 15.304009 -3.287257 1.371793 -0.101864 0.000000 0.000000 0.000000 -2.390000 -18.262266 -1.302632 3.905818 2.607678 2.058035 2.842656 2.017981 -0.126716 1.672200 -0.241953 0.089860 0.000000 0.000000 0.000000 2.749523 1.791563 -0.075610 0.945994 -0.232968 4.687956 0.197853 9.593335 1.378934 0.000000 0.000000 0.000000 2.567424 1.962933 -0.238064 0.005127 -4.091321 17.379558 -1.726658 -0.045505 -0.430676 -66.825922 -43.065080 -62.449909 -0.908593 -34.336932 0.836522 0.000000 0.000000 0.000000 3.007985 1.879198 -0.102685 -0.283060 -3.258112 -5.292205 0.697305 0.857468 0.463468 -103.862548 58.833460 95.419812 -1.520414 29.675229 0.447722 0.000000 0.000000 0.000000 
-0.965743 91.349953 0.158234 0.000000 0.000000 0.000000 -3.170400 -16.973952 -1.658323 -37.843011 17.195401 14.859160 50.091265 -0.185454 10.603362 -13.556866 2.889627 -7.832251 -1.143238 -0.380030 -1.394700 0.000000 0.000000 0.000000 -3.757798 -15.794684 -1.377891 -32.908599 -21.361022 -14.164782 50.046517 -3.500404 -10.206469 -13.420117 -4.047618 15.272677 -2.679860 1.346672 -0.211990 0.000000 0.000000 0.000000 -2.481217 -18.176460 -1.388015 3.928690 2.578211 1.985170 2.853531 2.013986 -0.159028 1.570729 0.049468 -0.046170 0.000000 0.000000 0.000000 2.675939 1.774221 -0.105434 0.808850 -0.354979 4.710765 0.398155 9.632263 1.378104 0.000000 0.000000 0.000000 2.579974 1.945667 -0.246613 -0.054047 -3.925646 17.295559 -1.738184 -0.054256 -0.335986 -66.759990 -43.290265 -62.546255 -0.854377 -34.640524 0.902681 0.000000 0.000000 0.000000 3.067340 1.879434 -0.123005 -0.262839 -3.181306 -5.385712 0.705067 0.858609 0.431708 -103.848341 59.354221 95.575329 -1.386500 29.385936 0.408873 0.000000 0.000000 0.000000 
-0.936330 91.261299 0.101128 0.000000 0.000000 0.000000 -3.158871 -17.134750 -1.600744 -37.986333 17.155791 14.739473 50.114061 -0.231705 10.783765 -13.280728 2.694757 -8.024593 -0.997556 -0.299026 -1.662624 0.000000 0.000000 0.000000 -3.793954 -15.958971 -1.329122 -32.997866 -21.437563 -14.228711 50.287756 -3.659360 -10.110942 -13.383261 -4.141217 15.229273 -2.472695 1.261579 -0.349234 0.000000 0.000000 0.000000 -2.607815 -18.062584 -1.469095 3.865702 2.502964 1.860920 2.800467 2.047283 -0.196002 1.334166 0.004877 -0.158362 0.000000 0.000000 0.000000 2.627892 1.801748 -0.151495 0.707434 -0.553149 4.893113 0.839277 9.473956 1.559623 0.000000 0.000000 0.000000 2.581309 1.968890 -0.276006 -0.142739 -3.606123 17.109132 -1.651956 -0.059674 -0.337616 -66.536042 -43.784098 -62.575434 -0.874073 -35.116772 0.859926 0.000000 0.000000 0.000000 3.090768 1.913377 -0.154535 -0.189658 -2.972503 -5.535119 0.526942 0.820598 0.227726 -103.639412 60.009823 95.891157 -1.217072 29.161619 0.330468 0.000000 0.000000 0.000000 
-0.899321 91.232666 0.064743 0.000000 0.000000 0.000000 -3.116192 -17.322647 -1.542080 -38.170478 17.101791 14.667396 50.129931 -0.301835 11.040656 -12.944234 2.421789 -8.378305 -0.858409 -0.202647 -1.955745 0.000000 0.000000 0.000000 -3.756051 -16.317359 -1.272573 -33.066834 -21.456577 -14.202726 50.289173 -3.815955 -10.044293 -13.032970 -4.216391 15.163679 -2.721458 1.131722 -0.394281 0.000000 0.000000 0.000000 -2.717324 -18.031804 -1.519268 3.714635 2.387806 1.738819 2.694181 2.093801 -0.235407 1.028143 -0.300989 -0.101770 0.000000 0.000000 0.000000 2.597534 1.856194 -0.202405 0.647053 -0.782217 5.183737 1.373404 9.225222 1.869656 0.000000 0.000000 0.000000 2.556945 2.016195 -0.323989 -0.247377 -3.185587 16.809282 -1.436518 -0.094273 -0.416042 -66.221778 -44.546473 -62.646406 -0.929835 -35.549844 0.709213 0.000000 0.000000 0.000000 3.071841 1.961399 -0.191455 -0.074859 -2.677057 -5.740373 0.341744 0.726459 0.031546 -103.271449 60.634677 96.295627 -1.041276 29.103737 0.229238 0.000000 0.000000 0.000000 
-0.875039 91.259727 0.034908 0.000000 0.000000 0.000000 -3.077689 -17.578827 -1.514432 -38.366945 17.047367 14.664899 50.129801 -0.364154 11.318224 -12.570769 2.161300 -8.793594 -0.804290 -0.104863 -2.169108 0.000000 0.000000 0.000000 -3.613138 -16.777094 -1.236985 -33.095808 -21.363747 -14.048091 50.115150 -3.963289 -10.021070 -12.555904 -4.247253 14.925860 -2.872391 0.977806 -0.242883 0.000000 0.000000 0.000000 -2.692041 -18.133676 -1.518704 3.505693 2.263346 1.651438 2.560339 2.129501 -0.271786 0.894872 -0.647953 0.023031 0.000000 0.000000 0.000000 2.569433 1.902177 -0.245338 0.608499 -0.994451 5.461988 1.808182 8.987090 2.222762 0.000000 0.000000 0.000000 2.497359 2.057996 -0.376339 -0.364320 -2.721634 16.456960 -1.321043 -0.119543 -0.558586 -65.927144 -45.514239 -62.804587 -0.954424 -35.873765 0.531909 0.000000 0.000000 0.000000 3.003092 1.997621 -0.224999 0.057039 -2.337266 -5.985431 0.163844 0.579412 -0.154540 -102.897729 61.093966 96.678445 -0.901693 29.215929 0.180603 0.000000 0.000000 0.000000 
-0.853438 91.334122 0.003941 0.000000 0.000000 0.000000 -3.061177 -17.914896 -1.523722 -38.483468 17.038568 14.706063 50.144404 -0.359452 11.538873 -12.277096 2.008532 -9.097804 -0.801052 -0.032020 -2.305954 0.000000 0.000000 0.000000 -3.445935 -17.224610 -1.237676 -33.213557 -21.188017 -13.835375 49.929267 -4.113296 -10.032723 -12.068714 -4.236850 14.548199 -2.723889 0.824565 0.080746 0.000000 0.000000 0.000000 -2.555015 -18.412814 -1.478592 3.333121 2.149917 1.602958 2.419299 2.137675 -0.308519 1.041105 -0.956438 0.183773 0.000000 0.000000 0.000000 2.534581 1.922238 -0.265445 0.567792 -1.169331 5.652201 2.031660 8.842453 2.521514 0.000000 0.000000 0.000000 2.405848 2.066979 -0.421539 -0.484398 -2.246718 16.091326 -1.194291 0.021310 -0.713077 -65.788184 -46.650551 -63.110347 -0.861562 -36.108516 0.404087 0.000000 0.000000 0.000000 2.892227 2.005073 -0.247684 0.172685 -2.031682 -6.296060 0.083770 0.523048 -0.311628 -102.483560 61.255991 96.774963 -0.809329 29.190156 0.207651 0.000000 0.000000 0.000000 
-0.823575 91.423645 -0.093361 0.000000 0.000000 0.000000 -3.059799 -18.256136 -1.562826 -38.539278 17.155794 14.764953 50.226554 -0.188712 11.644036 -12.188100 2.007251 -9.130700 -0.858624 0.016554 -2.332501 0.000000 0.000000 0.000000 -3.320739 -17.611108 -1.270358 -33.503041 -21.005815 -13.669141 49.910525 -4.216998 -10.086948 -11.645525 -4.159911 14.300300 -2.539914 0.691018 0.359454 0.000000 0.000000 0.000000 -2.342604 -18.806654 -1.424323 3.248357 2.102883 1.590010 2.287831 2.127478 -0.332940 1.140814 -1.148150 0.286432 0.000000 0.000000 0.000000 2.479907 1.911869 -0.261031 0.512462 -1.282722 5.700031 2.075851 8.833044 2.691536 0.000000 0.000000 0.000000 2.307396 2.052335 -0.447275 -0.591113 -1.790567 15.756983 -1.017645 0.327980 -0.897327 -65.758411 -47.909191 -63.550477 -0.546425 -36.181459 0.409575 0.000000 0.000000 0.000000 2.746746 1.989693 -0.257139 0.227918 -1.803398 -6.655522 0.200086 0.694795 -0.394246 -101.939576 61.087696 96.438453 -0.748364 28.819372 0.296904 0.000000 0.000000 0.000000 
-0.796831 91.485352 -0.185703 0.000000 0.000000 0.000000 -3.089267 -18.499033 -1.626833 -38.600234 17.385024 14.810046 50.420019 0.120377 11.640439 -12.233957 2.126783 -8.920023 -1.006871 0.046502 -2.268426 0.000000 0.000000 0.000000 -3.279763 -17.846171 -1.316015 -33.941683 -20.907696 -13.618999 50.188691 -4.267380 -10.171490 -11.301146 -4.021084 14.399063 -2.548331 0.596496 0.390434 0.000000 0.000000 0.000000 -2.071698 -19.176038 -1.365163 3.264825 2.152517 1.583484 2.185156 2.118137 -0.336472 1.222235 -1.211413 0.246435 0.000000 0.000000 0.000000 2.418209 1.888118 -0.240334 0.467010 -1.346822 5.588147 2.061370 8.909201 2.724700 0.000000 0.000000 0.000000 2.244816 2.027403 -0.446400 -0.665778 -1.417535 15.521911 -0.834050 0.743283 -1.014824 -65.654852 -49.218592 -63.986312 -0.051553 -35.980648 0.546955 0.000000 0.000000 0.000000 2.609149 1.970718 -0.253013 0.220921 -1.681217 -7.011042 0.365922 0.954812 -0.341554 -101.404130 60.701715 95.886348 -0.711020 28.178511 0.415740 0.000000 0.000000 0.000000 
-0.774699 91.523941 -0.247185 0.000000 0.000000 0.000000 -3.153219 -18.588428 -1.699046 -38.679447 17.649721 14.835946 50.664171 0.423681 11.570417 -12.335755 2.289665 -8.653314 -1.212591 0.055821 -2.171581 0.000000 0.000000 0.000000 -3.349017 -17.853913 -1.362803 -34.384152 -21.027566 -13.690804 50.646563 -4.291428 -10.261841 -11.148677 -3.895947 14.865442 -2.773844 0.554983 0.129152 0.000000 0.000000 0.000000 -1.865699 -19.415631 -1.321316 3.354356 2.291200 1.572878 2.124174 2.134827 -0.319292 1.256809 -1.257126 0.206102 0.000000 0.000000 0.000000 2.350335 1.884428 -0.216332 0.549166 -1.355656 5.368156 2.192431 8.988238 2.687032 0.000000 0.000000 0.000000 2.263211 2.015167 -0.428146 -0.680046 -1.212837 15.401412 -0.569233 1.245035 -1.015116 -65.627996 -50.554315 -64.581296 0.422552 -35.340850 0.676537 0.000000 0.000000 0.000000 2.541838 1.977159 -0.253694 0.148262 -1.688714 -7.360266 0.625851 1.229551 -0.209610 -100.917309 60.325153 95.306554 -0.687197 27.526069 0.478678 0.000000 0.000000 0.000000 
-0.742152 91.514328 -0.337437 0.000000 0.000000 0.000000 -3.261204 -18.517239 -1.763838 -38.801540 17.818611 14.849425 50.854221 0.580935 11.494728 -12.414431 2.402893 -8.507598 -1.363124 0.042937 -2.063148 0.000000 0.000000 0.000000 -3.543428 -17.676987 -1.413703 -34.573881 -21.366669 -13.785847 51.057085 -4.340536 -10.354819 -11.413295 -3.883915 15.377534 -3.007147 0.579358 -0.306494 0.000000 0.000000 0.000000 -1.798666 -19.453856 -1.310078 3.421316 2.501429 1.564366 2.111789 2.187435 -0.289989 1.107494 -1.337324 0.148654 0.000000 0.000000 0.000000 2.281181 1.920821 -0.202279 0.861752 -1.284991 5.089356 2.665820 9.048974 2.654269 0.000000 0.000000 0.000000 2.366938 2.035204 -0.406789 -0.623387 -1.243165 15.427309 -0.390469 1.706557 -1.047578 -65.831139 -51.793939 -65.371399 0.696775 -34.209651 0.709527 0.000000 0.000000 0.000000 2.583509 2.016047 -0.272999 0.019181 -1.764258 -7.694114 0.842325 1.431469 -0.051756 -100.443307 60.261810 94.837197 -0.663818 27.253693 0.456658 0.000000 0.000000 0.000000 
